# xmcd
#
# Track frame offsets:
#	150
#	18606
#	37035
#	50354
#	63516
#	81222
#	97729
#	118848
#	134998
#	151087
#	167278
#	183483
#	197554
#	214660
#	235048
#	253083
#	268647
#	288633
#	304133
#	322137
#	337743
#
# Disc length: 4717 seconds
#
# Revision: 0
# Processed by: cddbd v1.5.2PL0 Copyright (c) Steve Scherf et al.
# Submitted via: dBpowerAMP V4.0
#
DISCID=2f126b15
DTITLE=Shania Twain - Greatest Hits
DYEAR=1900
DGENRE=Country
TTITLE0=Forever and for Always
TTITLE1=I'm Gonna Getcha Good!
TTITLE2=Up!
TTITLE3=Come on Over
TTITLE4=Man! I Fell Like a Woman!
TTITLE5=That Don't Impress Me Much
TTITLE6=From This Moment On
TTITLE7=Honey, I''m Home
TTITLE8=You're Still the One
TTITLE9=Don't Be Stupid
TTITLE10=Love Gets Me Every Time
TTITLE11=No One Needs to Know
TTITLE12=You Win My Love
TTITLE13=(If You're Not In It for Love) I'm Outta Here!
TTITLE14=The WOman In Me (Needs the Man In You)
TTITLE15=Any Man of Mine
TTITLE16=Whose Bed Have Your Boots Been Under?
TTITLE17=Party for Two (Pop Version with Intro)
TTITLE18=Don't!
TTITLE19=Party for Two (Country Version with Intro)
TTITLE20=I Ain't No Quitter
EXTD=
EXTT0=
EXTT1=
EXTT2=
EXTT3=
EXTT4=
EXTT5=
EXTT6=
EXTT7=
EXTT8=
EXTT9=
EXTT10=
EXTT11=
EXTT12=
EXTT13=
EXTT14=
EXTT15=
EXTT16=
EXTT17=
EXTT18=
EXTT19=
EXTT20=
PLAYORDER=
